<svg xmlns="http://www.w3.org/2000/svg" width="256" height="256" viewBox="0 0 100 100"><rect width="100" height="100" rx="50" fill="#d97706"></rect><path fill="#ffffff" d="M39.03 49.50Q42.55 50.33 44.50 52.89Q46.45 55.45 46.45 58.80L46.45 58.80Q46.45 63.91 43.07 66.69Q39.69 69.47 33.36 69.47L33.36 69.47L12.96 69.47L12.96 30.53L32.81 30.53Q38.75 30.53 42.16 33.12Q45.57 35.70 45.57 40.65L45.57 40.65Q45.57 44.06 43.78 46.40Q42.00 48.73 39.03 49.50L39.03 49.50ZM25.17 40.21L25.17 45.71L29.90 45.71Q31.55 45.71 32.34 45.05Q33.14 44.39 33.14 43.02L33.14 43.02Q33.14 41.58 32.34 40.90Q31.55 40.21 29.90 40.21L29.90 40.21L25.17 40.21ZM30.72 59.68Q32.37 59.68 33.17 59.05Q33.97 58.41 33.97 56.98L33.97 56.98Q33.97 54.18 30.72 54.18L30.72 54.18L25.17 54.18L25.17 59.68L30.72 59.68ZM66.80 30.53Q72.91 30.53 77.50 33.00Q82.09 35.48 84.57 39.88Q87.04 44.28 87.04 49.89L87.04 49.89Q87.04 55.45 84.57 59.90Q82.09 64.36 77.50 66.91Q72.91 69.47 66.80 69.47L66.80 69.47L50.58 69.47L50.58 30.53L66.80 30.53ZM65.70 58.58Q69.83 58.58 72.25 56.33Q74.67 54.07 74.67 49.89L74.67 49.89Q74.67 45.71 72.25 43.45Q69.83 41.20 65.70 41.20L65.70 41.20L62.79 41.20L62.79 58.58L65.70 58.58Z"></path></svg>